<?xml version="1.0" encoding="UTF-8"?>
<svg width="80px" height="94px" viewBox="0 0 80 94" version="1.1" xmlns="http://www.w3.org/2000/svg" xmlns:xlink="http://www.w3.org/1999/xlink">
    <!-- Generator: Sketch 58 (84663) - https://sketch.com -->
    <title>Group 3</title>
    <desc>Created with Sketch.</desc>
    <g id="Page-1" stroke="none" stroke-width="1" fill="none" fill-rule="evenodd">
        <g id="1.home" transform="translate(-680.000000, -38.000000)" fill="#FFFFFF">
            <g id="Group-41" transform="translate(41.000000, 38.000000)">
                <g id="Group-9" transform="translate(27.000000, 0.000000)">
                    <g id="Group-3" transform="translate(612.000000, 0.000000)">
                        <path d="M31.3288049,23.0635483 C31.5992772,26.063384 35.3053963,32.0710226 36.3441643,33.4111458 C37.395499,34.7486407 38.4419877,36.3439589 40.805191,34.7333634 C43.1840821,33.1276961 49.6656427,18.6950883 52.8742669,16.17977 C54.049462,15.231269 49.7121314,11.9377166 48.4493799,12.8835893 C39.8129117,19.4915565 31.3288049,23.0635483 31.3288049,23.0635483 L31.3288049,23.0635483 Z M57.173076,26.4706119 C57.173076,26.4706119 51.5420287,26.6922957 53.9156632,23.5195647 C57.3638768,18.9552936 68.6496263,18.8368542 67.1625626,23.3263819 C66.2243285,26.164 59.5339795,26.3829733 59.5339795,26.3829733 C55.8432197,31.0916386 50.1013717,33.8671622 46.7534456,35.1790308 C46.6400164,35.2925421 46.4159507,35.3284353 46.2174292,35.3774702 L45.5706119,35.6042464 C42.7559918,36.9290103 41.885191,41.3798522 41.753692,42.2742259 L41.753692,59.1396057 C58.7996057,73.0669979 75.190653,53.9618645 75.190653,53.9618645 C75.190653,53.9618645 56.7761971,78.8681478 36.9265873,62.9074086 C16.2028912,46.2430144 4.79098152,65.7449446 4.79098152,65.7449446 C4.79098152,65.7449446 17.5947598,42.5859302 37.9497495,56.2349651 L37.9497495,42.9984148 C37.9497495,42.9984148 37.8671211,41.2769363 36.6326242,38.6248624 C35.3904066,35.9881478 27.267039,21.9527474 22.4242464,22.6614127 C21.682152,22.7748419 15.5381684,25.707655 11.0718029,21.2389076 C6.60798357,16.782809 10.930037,11.9788665 15.0045339,12.5510226 C15.0045339,12.5510226 18.2519261,1.70601232 34.7822752,4.12605339 C34.7822752,4.12605339 55.8690924,-4.40454209 68.1753758,3.06675154 C73.7320082,6.41968789 70.1623162,15.4788255 60.1885175,16.2647803 C54.425807,16.7131581 53.5160739,18.8858891 50.9699548,22.38823 C48.7251088,25.480961 49.4672033,27.7308172 46.5291335,32.7228501 L46.8384559,32.3133224 C46.8384559,32.3133224 51.737922,32.6044107 57.173076,26.4706119 L57.173076,26.4706119 Z M16.3499138,17.5972649 C15.2159507,16.9272033 14.7751294,14.7028912 14.7751294,14.7028912 C12.2160329,14.8860534 12.3059078,17.7389487 12.3059078,17.7389487 C13.440345,22.7748419 19.4244107,20.9578398 19.4244107,20.9578398 C17.7209199,17.8394825 20.1024394,16.0198522 20.1024394,16.0198522 C19.2465873,21.0454784 26.6563614,20.4709405 26.6563614,20.4709405 C38.4419877,19.9166899 47.3667515,11.0768542 47.3667515,11.0768542 C46.8952115,9.17484189 48.0676961,7.36317864 48.0676961,7.36317864 C50.9414538,13.9117618 55.8870801,14.1102012 55.8870801,14.1102012 C55.8870801,14.1102012 66.2114333,14.5791951 67.1056427,8.80621766 C68.013076,3.0513922 56.6629322,2.71389733 56.6629322,2.71389733 C34.2152115,2.65451335 31.4111869,11.7289281 31.4111869,11.7289281 C29.6174292,8.04350719 32.7927064,5.78576591 32.7927064,5.78576591 C15.7236304,5.28588912 16.3499138,17.5972649 16.3499138,17.5972649 L16.3499138,17.5972649 Z M60.1138563,21.4168131 C60.1138563,21.4168131 55.5211663,22.130653 55.6138973,23.7823984 C55.6371417,24.3057659 56.3304476,24.6200986 57.1448214,24.8006324 C57.2789487,24.8211663 59.1138563,25.1768953 61.3560739,23.0274086 C61.3560739,23.0274086 61.154924,24.6303655 60.582768,24.9655606 C62.0001807,24.7617823 65.1187844,24.1020698 64.7166489,22.6510637 C64.2320493,20.7981684 60.1138563,21.4168131 60.1138563,21.4168131 L60.1138563,21.4168131 Z M52.5908994,79.2316797 C52.2480657,78.8812074 51.7737331,78.6594415 51.0702423,78.6594415 L48.9491745,78.6594415 L48.9132813,82.9841232 L50.7841643,82.9841232 C51.5626448,82.9841232 52.1219055,82.7804271 52.5006324,82.4223162 C52.9104066,82.0795647 53.1218234,81.5690924 53.1218234,80.816731 C53.1218234,80.1001807 52.9310226,79.6103244 52.5908994,79.2316797 L52.5908994,79.2316797 Z M53.8071622,83.8938563 C52.9904066,84.6283121 51.8590719,84.9608789 50.5497495,84.9608789 L48.9029322,84.9608789 L48.9029322,89.5842875 L46.8693388,89.5842875 L46.8693388,78.7006735 C46.8693388,78.0538563 47.1116386,77.4790719 47.6581684,77.0899959 C48.0341848,76.8296263 48.485191,76.7007556 48.9544312,76.7007556 L51.0702423,76.7083943 C52.2583326,76.7083943 53.2608789,77.0589487 54.0368131,77.8321725 C54.822768,78.6053963 55.1991129,79.6311047 55.1991129,80.8037536 C55.1991129,82.0356222 54.722152,83.0767721 53.8071622,83.8938563 L53.8071622,83.8938563 Z M61.7374292,85.4582916 C61.7374292,84.4839179 61.5030965,83.7548008 61.1007967,83.208271 C60.6704066,82.6412895 60.0596468,82.3320493 59.2143901,82.3320493 C58.3923778,82.3320493 57.7890924,82.5898727 57.3638768,83.0767721 C56.9231376,83.5537331 56.6835483,84.187655 56.6835483,85.0561561 C56.6835483,85.9451088 56.915499,86.5922546 57.3459713,87.0303655 C57.7608378,87.5097084 58.3665051,87.7675318 59.2143901,87.7675318 C60.2169363,87.7675318 61.1937741,87.1515154 61.7374292,86.3086407 L61.7374292,85.4582916 Z M61.7374292,81.1800986 L61.7374292,80.5485585 L63.724616,80.5485585 L63.724616,89.5842875 L61.7374292,89.5842875 L61.7374292,88.9891335 C61.4668747,89.1461766 61.1937741,89.2878604 60.868846,89.4067105 C60.3534456,89.6204271 59.7994415,89.7235072 59.2143901,89.7235072 C57.884616,89.7235072 56.7761971,89.2904887 55.925848,88.4117207 C55.0778809,87.525232 54.6654784,86.391269 54.6654784,85.074308 C54.6654784,83.7289281 55.0520903,82.6051499 55.8820698,81.7316386 C56.7093388,80.8296263 57.8304887,80.41977 59.1835072,80.41977 C60.1499959,80.41977 61.0105298,80.6669979 61.7374292,81.1800986 L61.7374292,81.1800986 Z M70.4999754,82.5639179 C69.4408378,82.2829322 68.8816591,82.4093388 68.8816591,82.4093388 C68.3376756,82.4996879 67.9201807,82.7134045 67.5437536,83.205807 C67.1830965,83.6775113 66.9537741,84.4067105 66.9537741,85.4736509 L66.9537741,89.5842875 L64.9950062,89.5842875 L64.9950062,80.5667926 L66.9537741,80.5667926 L66.9537741,81.0795647 C67.5437536,80.7160329 68.2243285,80.5280246 68.9872033,80.5280246 C69.6237536,80.5150472 70.1159097,80.6438357 70.4999754,80.7317207 L70.4999754,82.5639179 Z M77.4045339,89.5740205 L74.4561971,86.3241643 L73.291269,87.5843696 L73.291269,89.5842875 L71.3169774,89.5842875 L71.3169774,76.8527885 L73.291269,76.8527885 L73.291269,84.7933224 L77.3375113,80.4247803 L79.9224805,80.4247803 L75.747039,84.9452731 L79.9766078,89.5740205 L77.4045339,89.5740205 Z M7.29603285,80.6929528 C8.87073511,80.6929528 9.46876386,81.1980041 10.3835072,82.3396879 L8.69020123,83.3499548 C8.19048871,82.8371828 8.03311704,82.6412895 7.22662834,82.6412895 L5.85800411,82.6412895 C5.07204928,82.6412895 5.0126653,82.8783326 5.0126653,83.1850267 C5.0126653,83.3011663 5.08478029,83.6310226 6.10293224,83.9041232 L7.65940041,84.3552115 C9.15944148,84.7727064 10.1800575,85.6412074 10.1800575,87.0818645 C10.1800575,88.9941437 8.61052977,89.7235072 6.51517043,89.7235072 L5.73948255,89.7235072 C4.15944148,89.7235072 3.55410267,89.1770595 2.6441232,88.0431786 L4.32206982,87.0174702 C4.80658727,87.5097084 4.98416427,87.762193 5.73948255,87.762193 L7.01258316,87.762193 C8.10013963,87.762193 8.19048871,87.4323368 8.19048871,87.128271 C8.19048871,86.8678193 8.02022177,86.4865462 6.92231622,86.1722136 C5.33989322,85.7391129 3.02810678,85.3447803 3.02810678,83.1567721 C3.02810678,81.4274086 4.32206982,80.7032197 6.12346612,80.7032197 L7.29603285,80.6929528 Z M13.1257659,82.6619055 L13.1257659,87.5019877 L14.2442053,87.8010431 L14.2442053,89.7235072 L13.2391951,89.7235072 C11.8938152,89.7235072 11.136115,88.9168542 11.136115,87.5587433 L11.136115,77.5048624 L13.1257659,77.5048624 L13.1257659,80.7032197 L15.2159507,80.7032197 L15.2159507,82.6619055 L13.1257659,82.6619055 Z M17.2801807,79.7832197 C16.5819466,79.7832197 16.1617413,79.2987023 16.1617413,78.6206735 C16.1617413,77.9483121 16.6051088,77.5048624 17.2801807,77.5048624 C17.9555811,77.5048624 18.4503655,77.9171828 18.4503655,78.6206735 C18.4503655,79.3269569 17.9708583,79.7832197 17.2801807,79.7832197 L17.2801807,79.7832197 Z M16.3111458,89.7235072 L18.3086817,89.7235072 L18.3086817,80.7032197 L16.3111458,80.7032197 L16.3111458,89.7235072 Z M19.6952115,80.6826858 L21.6977577,80.6826858 C22.2261355,80.6929528 22.8291745,80.5614538 23.4966078,80.5614538 C24.6717207,80.5614538 25.6563614,80.9480657 26.3599343,81.8036715 C26.9965667,82.5639179 27.2849446,83.564 27.2849446,84.7006735 L27.2849446,89.7235072 L25.3186201,89.7235072 L25.3186201,84.491885 C25.3186201,83.8576345 25.1433429,83.3938152 24.8290103,83.0356222 C24.5247803,82.6825216 24.0892977,82.4737331 23.4966078,82.4737331 C22.9012074,82.4737331 22.4707351,82.6619055 22.1717618,82.9608789 C21.8703244,83.2622341 21.6977577,83.6953347 21.6977577,84.3162793 L21.6977577,89.7004271 L19.6952115,89.7004271 L19.6952115,80.6826858 Z M33.8053552,89.4786612 C33.2898727,89.741577 32.6921725,89.8600164 32.0580041,89.8600164 C30.8751704,89.8600164 29.8957864,89.4631376 29.1922136,88.6127885 C28.5504066,87.8447392 28.2722136,86.8654374 28.2722136,85.7184969 L28.2722136,80.7032197 L30.2333634,80.7032197 L30.2333634,85.9325421 C30.2333634,86.5922546 30.4111869,87.0456427 30.7231376,87.3988255 C31.0194825,87.7519261 31.4473265,87.9427269 32.0580041,87.9427269 C32.6404271,87.9427269 33.057922,87.7519261 33.3648624,87.3988255 C33.6842053,87.0303655 33.8621109,86.5794415 33.8621109,85.9325421 L33.8621109,80.7032197 L35.8466694,80.7032197 L35.8466694,88.8292156 C35.8466694,90.1334456 35.4729528,91.2648624 34.689462,92.1253963 C33.8673676,93.0068747 32.740961,93.437347 31.4267105,93.437347 C30.0634251,93.437347 29.1587023,92.9836304 28.0402628,92.2826858 L28.7412074,90.2801396 C29.6356632,90.9322957 30.2695031,91.4424394 31.4473265,91.4424394 C32.2849446,91.4424394 32.8594825,91.192501 33.2460945,90.7441232 C33.5245339,90.4401396 33.720345,90.0096674 33.8053552,89.4786612 L33.8053552,89.4786612 Z M43.0061766,83.1156222 C42.5681478,82.7110226 42.0268747,82.4737331 41.2974292,82.4737331 C40.5577166,82.4737331 39.9881889,82.7110226 39.550078,83.1156222 C39.2666283,83.3989897 39.057922,83.7289281 38.908271,84.1411663 L43.6557043,84.1411663 C43.5190308,83.7289281 43.2949651,83.3989897 43.0061766,83.1156222 L43.0061766,83.1156222 Z M45.73554,85.6076961 L45.5962382,86.0922136 L38.8594825,86.0922136 C39.1816181,87.2959097 40.1402218,87.9039589 41.3670801,87.9039589 C41.7793183,87.9039589 42.2279425,87.8394825 42.6581684,87.6952526 C43.4416591,87.4555811 43.6195647,87.2288049 44.1479425,86.6590308 L45.5962382,88.0431786 C44.3204271,89.365232 43.2718029,89.8600164 41.3670801,89.8600164 C40.0319671,89.8600164 38.9032608,89.4296263 38.0141437,88.5586612 C37.1559097,87.6771828 36.7384148,86.5508583 36.7384148,85.2134456 C36.7384148,83.9041232 37.150653,82.7856838 37.9856427,81.8989487 C38.8594825,80.9866694 39.9729117,80.5614538 41.2974292,80.5614538 C42.5602628,80.5614538 43.6709815,80.9686817 44.5242875,81.8474497 C45.3875318,82.7134045 45.8128296,83.8062177 45.8128296,85.087039 C45.8128296,85.2598522 45.7920493,85.4350472 45.73554,85.6076961 L45.73554,85.6076961 Z M0.118537988,89.7235072 L2.15722382,89.7235072 L2.15722382,76.9920082 L0.118537988,76.9920082 L0.118537988,89.7235072 Z M1.11845585,76.1259713 C0.422521561,76.1259713 1.64271047e-05,75.6390719 1.64271047e-05,74.9817413 C1.64271047e-05,74.3065873 0.43812731,73.8453142 1.11845585,73.8453142 C1.79114579,73.8453142 2.28864066,74.2704476 2.28864066,74.9817413 C2.28864066,75.6673265 1.81176181,76.1259713 1.11845585,76.1259713 L1.11845585,76.1259713 Z" id="Fill-1"></path>
                    </g>
                </g>
            </g>
        </g>
    </g>
</svg>