<svg width="289" height="289" viewBox="0 0 289 289" fill="none" xmlns="http://www.w3.org/2000/svg">
<rect width="289" height="289" fill="white"/>
<path d="M34 144.594C34 127.85 34 119.478 39.2018 114.276C44.4036 109.074 52.7757 109.074 69.52 109.074C86.2643 109.074 94.6364 109.074 99.8382 114.276C105.04 119.478 105.04 127.85 105.04 144.594C105.04 161.339 105.04 169.711 99.8382 174.912C94.6364 180.114 86.2643 180.114 69.52 180.114C52.7757 180.114 44.4036 180.114 39.2018 174.912C34 169.711 34 161.339 34 144.594Z" fill="#246EFF"/>
<path d="M66.6109 165.906C65.3409 165.906 63.9485 165.487 62.4643 164.68C55.6246 160.937 50.5446 155.239 48.0658 151.155C46.6887 148.888 45.893 147.18 45.8471 145.145V144.959C45.8471 144.85 45.8318 144.726 45.8471 144.618C45.8471 144.462 45.8471 144.338 45.8471 144.229V144.043C45.9083 141.993 46.704 140.285 48.0811 138.034C50.5599 133.95 55.6399 128.251 62.4796 124.509C63.9638 123.701 65.3562 123.282 66.6262 123.282C67.8962 123.282 68.7225 123.686 69.2121 123.919L69.2887 123.95C70.8341 124.68 71.8746 125.72 72.3642 127.071L72.4101 127.18C72.5784 127.599 72.9916 128.593 72.3795 130.068C71.8593 131.31 70.3597 132.723 69.5641 133.469C69.3805 133.639 69.2274 133.779 69.1356 133.888C66.2896 136.791 62.7397 140.409 62.7856 144.602C62.7244 148.779 66.2743 152.397 69.1356 155.301C69.2427 155.409 69.3805 155.549 69.5641 155.72C70.375 156.481 71.8593 157.878 72.3795 159.121C72.9916 160.596 72.5937 161.589 72.4101 162.009L72.3642 162.117C71.8593 163.453 70.8341 164.509 69.2887 165.239L69.2121 165.27C68.7072 165.503 67.8656 165.906 66.6262 165.906H66.6109Z" fill="white"/>
<path d="M79.6782 158.391C74.5676 157.32 70.069 152.568 68.4318 149.773C65.1879 144.214 68.2941 139.525 68.4318 139.338C68.493 139.245 74.6594 130.425 80.076 130.425C80.2291 130.425 80.3821 130.425 80.5198 130.456C85.3091 131.077 89.8382 136.093 91.7203 139.307C94.9795 144.866 91.858 149.587 91.7203 149.789C91.6591 149.866 85.5386 158.36 80.1219 158.422C80.1219 158.422 79.8465 158.422 79.6629 158.391H79.6782Z" fill="white"/>
<path d="M120.833 163.403C120.483 163.403 120.185 163.28 119.94 163.035C119.695 162.79 119.572 162.492 119.572 162.142V127.938C119.572 127.553 119.677 127.238 119.888 126.992C120.133 126.747 120.448 126.625 120.833 126.625H125.562C125.947 126.625 126.262 126.747 126.508 126.992C126.753 127.238 126.875 127.553 126.875 127.938V140.232L138.592 127.57C139.117 126.94 139.8 126.625 140.641 126.625H146C146.28 126.625 146.525 126.73 146.735 126.94C146.981 127.15 147.103 127.413 147.103 127.728C147.103 127.973 147.016 128.183 146.841 128.358L132.55 144.226L147.891 161.616C148.031 161.861 148.101 162.089 148.101 162.299C148.101 162.615 147.996 162.877 147.786 163.087C147.576 163.298 147.331 163.403 147.051 163.403H141.534C140.798 163.403 140.273 163.263 139.958 162.982C139.643 162.667 139.467 162.492 139.432 162.457L126.875 148.586V162.142C126.875 162.492 126.753 162.79 126.508 163.035C126.262 163.28 125.947 163.403 125.562 163.403H120.833Z" fill="black"/>
<path d="M161.201 163.928C157.979 163.928 155.439 162.877 153.583 160.776C151.726 158.674 150.798 155.784 150.798 152.107V137.343C150.798 136.958 150.921 136.66 151.166 136.45C151.411 136.204 151.709 136.082 152.059 136.082H156.788C157.138 136.082 157.436 136.204 157.681 136.45C157.926 136.695 158.049 136.993 158.049 137.343V151.791C158.049 156.1 159.923 158.254 163.671 158.254C165.492 158.254 166.928 157.676 167.979 156.52C169.065 155.364 169.608 153.788 169.608 151.791V137.343C169.608 136.958 169.73 136.66 169.975 136.45C170.221 136.204 170.518 136.082 170.869 136.082H175.545C175.93 136.082 176.228 136.204 176.438 136.45C176.683 136.66 176.806 136.958 176.806 137.343V162.142C176.806 162.492 176.683 162.79 176.438 163.035C176.228 163.28 175.93 163.403 175.545 163.403H171.184C170.834 163.403 170.536 163.28 170.291 163.035C170.045 162.79 169.923 162.492 169.923 162.142V159.988C167.996 162.615 165.089 163.928 161.201 163.928Z" fill="black"/>
<path d="M184.795 131.616C184.445 131.616 184.147 131.493 183.902 131.248C183.657 131.003 183.534 130.705 183.534 130.355V126.52C183.534 126.134 183.657 125.819 183.902 125.574C184.147 125.329 184.445 125.206 184.795 125.206H189.629C190.014 125.206 190.33 125.329 190.575 125.574C190.82 125.819 190.943 126.134 190.943 126.52V130.355C190.943 130.705 190.802 131.003 190.522 131.248C190.277 131.493 189.979 131.616 189.629 131.616H184.795ZM185.006 163.403C184.655 163.403 184.358 163.28 184.112 163.035C183.867 162.79 183.745 162.492 183.745 162.142V137.343C183.745 136.958 183.867 136.66 184.112 136.45C184.358 136.204 184.655 136.082 185.006 136.082H189.471C189.822 136.082 190.119 136.204 190.365 136.45C190.61 136.695 190.732 136.993 190.732 137.343V162.142C190.732 162.492 190.61 162.79 190.365 163.035C190.119 163.28 189.822 163.403 189.471 163.403H185.006Z" fill="black"/>
<path d="M198.963 163.403C198.612 163.403 198.315 163.28 198.069 163.035C197.824 162.79 197.702 162.492 197.702 162.142V127.36C197.702 126.975 197.824 126.677 198.069 126.467C198.315 126.222 198.612 126.099 198.963 126.099H203.323C203.674 126.099 203.971 126.222 204.217 126.467C204.462 126.712 204.584 127.01 204.584 127.36V145.329L213.306 136.975C213.411 136.905 213.569 136.782 213.779 136.607C214.024 136.397 214.252 136.257 214.462 136.187C214.672 136.117 214.935 136.082 215.25 136.082H220.241C220.592 136.082 220.872 136.187 221.082 136.397C221.292 136.607 221.397 136.887 221.397 137.238C221.397 137.553 221.222 137.868 220.872 138.183L210.154 148.324L222.185 161.354C222.501 161.669 222.658 161.967 222.658 162.247C222.658 162.597 222.553 162.877 222.343 163.087C222.133 163.298 221.87 163.403 221.555 163.403H216.458C215.968 163.403 215.6 163.35 215.355 163.245C215.145 163.105 214.865 162.86 214.515 162.509L204.584 151.949V162.142C204.584 162.492 204.462 162.79 204.217 163.035C203.971 163.28 203.674 163.403 203.323 163.403H198.963Z" fill="black"/>
<path d="M234.059 163.928C232.273 163.928 230.626 163.578 229.12 162.877C227.649 162.142 226.476 161.161 225.6 159.935C224.759 158.709 224.339 157.361 224.339 155.889C224.339 153.508 225.302 151.581 227.229 150.11C229.155 148.639 231.8 147.641 235.162 147.115L242.36 146.064V144.961C242.36 143.455 241.975 142.317 241.204 141.546C240.434 140.775 239.208 140.39 237.527 140.39C236.371 140.39 235.443 140.6 234.742 141.021C234.041 141.441 233.464 141.879 233.008 142.334C232.588 142.754 232.308 143.035 232.168 143.175C232.027 143.595 231.765 143.805 231.379 143.805H227.281C226.966 143.805 226.686 143.7 226.441 143.49C226.231 143.28 226.125 143 226.125 142.649C226.16 141.774 226.581 140.793 227.386 139.707C228.227 138.586 229.506 137.623 231.222 136.817C232.938 135.977 235.057 135.556 237.579 135.556C241.712 135.556 244.725 136.485 246.616 138.341C248.507 140.197 249.453 142.632 249.453 145.644V162.142C249.453 162.492 249.331 162.79 249.085 163.035C248.875 163.28 248.578 163.403 248.192 163.403H243.831C243.481 163.403 243.183 163.28 242.938 163.035C242.693 162.79 242.57 162.492 242.57 162.142V160.093C241.8 161.213 240.714 162.142 239.313 162.877C237.912 163.578 236.161 163.928 234.059 163.928ZM235.845 158.884C237.772 158.884 239.348 158.254 240.574 156.993C241.8 155.732 242.413 153.91 242.413 151.529V150.478L237.159 151.318C233.131 151.949 231.117 153.297 231.117 155.364C231.117 156.485 231.572 157.361 232.483 157.991C233.429 158.586 234.549 158.884 235.845 158.884Z" fill="black"/>
</svg>
