<svg width="532" height="532" viewBox="0 0 532 532" fill="none" xmlns="http://www.w3.org/2000/svg">
<path d="M0 266C0 140.606 0 77.9096 38.9548 38.9548C77.9096 0 140.606 0 266 0C391.394 0 454.09 0 493.045 38.9548C532 77.9096 532 140.606 532 266C532 391.394 532 454.09 493.045 493.045C454.09 532 391.394 532 266 532C140.606 532 77.9096 532 38.9548 493.045C0 454.09 0 391.394 0 266Z" fill="#246EFF"/>
<path d="M244.213 425.6C234.702 425.6 224.275 422.46 213.16 416.414C161.94 388.389 123.897 345.713 105.334 315.13C95.0207 298.153 89.0622 285.361 88.7184 270.128V268.733C88.7184 267.919 88.6038 266.988 88.7184 266.174C88.7184 265.011 88.7184 264.081 88.7184 263.267V261.872C89.1768 246.522 95.1353 233.731 105.448 216.87C124.011 186.287 162.054 143.611 213.275 115.586C224.39 109.54 234.817 106.4 244.328 106.4C253.838 106.4 260.026 109.423 263.693 111.168L264.266 111.4C275.839 116.865 283.631 124.657 287.298 134.773L287.642 135.587C288.902 138.727 291.996 146.169 287.412 157.216C283.516 166.519 272.287 177.101 266.328 182.682C264.953 183.961 263.807 185.008 263.12 185.822C241.807 207.567 215.223 234.661 215.566 266.058C215.108 297.339 241.692 324.433 263.12 346.178C263.922 346.992 264.953 348.038 266.328 349.318C272.402 355.015 283.516 365.481 287.412 374.784C291.996 385.831 289.017 393.273 287.642 396.413L287.298 397.227C283.516 407.227 275.839 415.134 264.266 420.6L263.693 420.832C259.912 422.577 253.609 425.6 244.328 425.6H244.213Z" fill="white"/>
<path d="M342.074 369.319C303.802 361.296 270.113 325.713 257.852 304.782C233.56 263.152 256.821 228.034 257.852 226.639C258.311 225.941 304.489 159.891 345.053 159.891C346.199 159.891 347.345 159.891 348.376 160.124C384.242 164.775 418.16 202.335 432.254 226.406C456.661 268.036 433.285 303.386 432.254 304.898C431.796 305.479 385.961 369.087 345.397 369.552C345.397 369.552 343.334 369.552 341.959 369.319H342.074Z" fill="white"/>
</svg>
